<svg id="Layer_1" data-name="Layer 1" xmlns="http://www.w3.org/2000/svg" viewBox="0 0 200 200"><defs><style>.cls-1{fill:#fc6;}.cls-2{fill:#706252;}.cls-3{fill:#b4d7ad;}.cls-4{fill:#e8af52;}</style></defs><title>home_icon</title><circle class="cls-1" cx="142.77" cy="117.11" r="22.14"/><path class="cls-2" d="M142.77,95.72a21.39,21.39,0,1,1-21.38,21.39,21.41,21.41,0,0,1,21.38-21.39m0-1.5a22.89,22.89,0,1,0,22.89,22.89,22.91,22.91,0,0,0-22.89-22.89Z"/><path class="cls-3" d="M117.11,173.75a5,5,0,0,1-5-5v-8.84A30.44,30.44,0,0,1,121.36,138l.53-.51.52.51a29,29,0,0,0,40.73,0l.52-.51.53.51a30.62,30.62,0,0,1,9.56,21.92v8.84a5,5,0,0,1-5,5Z"/><path class="cls-2" d="M163.66,138.5A30.06,30.06,0,0,1,173,159.88v8.84a4.27,4.27,0,0,1-4.28,4.28H117.11a4.28,4.28,0,0,1-4.28-4.28v-8.84a29.81,29.81,0,0,1,9.06-21.38,29.78,29.78,0,0,0,41.77,0m-41.77-2.1-1,1a31.2,31.2,0,0,0-9.51,22.46v8.84a5.78,5.78,0,0,0,5.78,5.78h51.61a5.78,5.78,0,0,0,5.78-5.78v-8.84a31.37,31.37,0,0,0-9.79-22.46l-1.05-1-1,1a28.27,28.27,0,0,1-39.68,0l-1-1Z"/><path class="cls-1" d="M57.23,70.81A22.28,22.28,0,1,1,79.36,48.67,22.16,22.16,0,0,1,57.23,70.81Z"/><path class="cls-2" d="M57.23,27A21.65,21.65,0,0,1,78.61,48.67a21.39,21.39,0,1,1-42.77,0A21.65,21.65,0,0,1,57.23,27m0-1.5A23,23,0,1,0,80.11,48.67,23.06,23.06,0,0,0,57.23,25.5Z"/><path class="cls-3" d="M31.28,105a5,5,0,0,1-5-5V91.45a30.64,30.64,0,0,1,9.56-21.93l.53-.51.52.51a29,29,0,0,0,40.73,0l.52-.51.53.51a30.46,30.46,0,0,1,9.28,21.93V100a5,5,0,0,1-5,5Z"/><path class="cls-2" d="M78.11,70.06a29.81,29.81,0,0,1,9.06,21.39V100a4.28,4.28,0,0,1-4.28,4.28H31.28A4.28,4.28,0,0,1,27,100V91.45a30.06,30.06,0,0,1,9.34-21.39,29.78,29.78,0,0,0,41.77,0M36.34,68l-1.05,1A31.34,31.34,0,0,0,25.5,91.45V100a5.78,5.78,0,0,0,5.78,5.78H82.89A5.78,5.78,0,0,0,88.67,100V91.45A31.16,31.16,0,0,0,79.16,69l-1-1-1,1a28.3,28.3,0,0,1-39.68,0l-1-1Z"/><path class="cls-4" d="M154.3,90.31a29.17,29.17,0,0,0-9.07-2.14l-.52,0-.14-.51a46.22,46.22,0,0,0-57.87-32L85.48,56l.27-1.23a29.69,29.69,0,0,0,.67-6.12,11.6,11.6,0,0,0-.14-1.53c0-.33-.09-.66-.12-1l-.06-.64.63-.15A55.81,55.81,0,0,1,100,43.64a56.39,56.39,0,0,1,55.34,45.84l.26,1.39Z"/><path class="cls-2" d="M100,44.39a55.68,55.68,0,0,1,54.6,45.23,30,30,0,0,0-9.31-2.2A47,47,0,0,0,86.48,54.94a29.38,29.38,0,0,0,.69-6.27c0-.89-.19-1.72-.26-2.59A55.2,55.2,0,0,1,100,44.39m0-1.5a56.86,56.86,0,0,0-13.45,1.73l-1.25.3.11,1.29c0,.35.08.69.12,1a10.62,10.62,0,0,1,.14,1.43,28.75,28.75,0,0,1-.65,6l-.53,2.48,2.42-.73a45.47,45.47,0,0,1,56.94,31.44l.28,1,1,.09A28.27,28.27,0,0,1,154,91l2.6,1.12-.53-2.78A57.13,57.13,0,0,0,100,42.89Z"/><path class="cls-4" d="M100,156.36A56.14,56.14,0,0,1,45.22,113l-.22-.92H55.34l.16.55A46.47,46.47,0,0,0,100,146.3a45.84,45.84,0,0,0,6.7-.54l1.25-.18-.44,1.19a36.78,36.78,0,0,0-2,8.68l-.07.61-.61.05C103.29,156.24,101.66,156.36,100,156.36Z"/><path class="cls-2" d="M54.77,112.83a46.56,46.56,0,0,0,52,33.67,38.07,38.07,0,0,0-2.08,8.87c-1.57.13-3.14.24-4.73.24a55.66,55.66,0,0,1-54-42.78h8.82m1.14-1.5H44.05l.44,1.85A57.18,57.18,0,0,0,100,157.11c1.7,0,3.34-.12,4.85-.25l1.22-.1.15-1.22a36,36,0,0,1,2-8.51l.89-2.37-2.51.36a45.08,45.08,0,0,1-50.37-32.6l-.31-1.09Z"/></svg>