<svg id="Layer_1" data-name="Layer 1" xmlns="http://www.w3.org/2000/svg" viewBox="0 0 200 200"><defs><style>.cls-1{fill:#fc6;}.cls-2{fill:#706252;}.cls-3{fill:#e8af52;}.cls-4{fill:#99826b;}</style></defs><title>home_icon</title><rect class="cls-1" x="48.25" y="21.25" width="103.5" height="157.5"/><path class="cls-2" d="M151,22V178H49V22H151m1.5-1.5H47.5v159h105V20.5Z"/><path class="cls-3" d="M151,162.74V178H49V95.15c16.22,40,52.65,67.85,95,67.85C146.35,163,148.69,162.91,151,162.74Z"/><circle class="cls-4" cx="132.5" cy="100" r="5.25"/><path class="cls-2" d="M132.5,95.5A4.5,4.5,0,1,1,128,100a4.49,4.49,0,0,1,4.5-4.5m0-1.5a6,6,0,1,0,6,6,6,6,0,0,0-6-6Z"/></svg>