<svg id="Layer_1" data-name="Layer 1" xmlns="http://www.w3.org/2000/svg" viewBox="0 0 200 200"><defs><style>.cls-1{fill:#b4d7ad;}.cls-2{fill:#706252;}.cls-3{fill:#a0bf99;}.cls-4{fill:#fc6;}.cls-5{fill:#e8af52;}</style></defs><title>home_icon</title><path class="cls-1" d="M120.11,88V60.07a35.17,35.17,0,0,1-7.2.71c-5.75,0-11.35-1.26-16.77-2.49-2.66-.6-5.42-1.22-8.14-1.68a51.47,51.47,0,0,0-8.66-.82,28.38,28.38,0,0,0-11,2.05,2.05,2.05,0,0,1-.72.13,4.92,4.92,0,0,1-1-.15c-.2,0-.39-.08-.57-.1l-.82-.09.16-.81a4.28,4.28,0,0,0,.08-.65A3.23,3.23,0,0,1,66,54.35c5-5.9,10.17-11.84,15.16-17.59l.36-.4a14.62,14.62,0,0,1,1.25-1.23L83,35C78,29.13,73.48,24.57,67.69,21.3A8,8,0,0,1,66,19.9c-.21-.21-.42-.42-.64-.62l-.72-.64.79-.54q.36-.26.72-.54A7.47,7.47,0,0,1,68,16.39a31.16,31.16,0,0,1,11.39-2,69.68,69.68,0,0,1,13.85,1.74c6.67,1.35,13.28,2.37,18.86,3.2a11.57,11.57,0,0,0,1.62.11,33.19,33.19,0,0,0,3.43-.26l.69-.08c.88-.09,1.79-.19,2.16-.66A2,2,0,0,0,120.2,17a2.87,2.87,0,0,1,.91-2,6,6,0,0,0,.47-.62l.22-.36h8.65l.17.51c.13.38.3.75.46,1.12a7.28,7.28,0,0,1,.8,2.84c.07,19.8.06,39.93.05,59.4v7.42a13.11,13.11,0,0,1-.09,1.36c0,.23-.05.46-.06.71l-.06.69Z"/><path class="cls-2" d="M129.91,14.69c.43,1.24,1.21,2.48,1.22,3.72q.1,33.41.05,66.82c0,.63-.09,1.25-.15,2H120.86V59.13a34.27,34.27,0,0,1-8,.9c-8.5,0-16.56-2.78-24.78-4.16A53.77,53.77,0,0,0,79.34,55,29.27,29.27,0,0,0,68,57.14a1,1,0,0,1-.43.08c-.48,0-1-.2-1.52-.25.15-.72.06-1.65.48-2.14,5.12-6,10.31-12,15.5-18,.52-.6,1.15-1.1,1.91-1.83-4.67-5.56-9.54-10.77-15.92-14.37a14.35,14.35,0,0,1-2.22-1.93,13.14,13.14,0,0,1,2.44-1.63,30.4,30.4,0,0,1,11.12-2,69.24,69.24,0,0,1,13.7,1.73c6.26,1.26,12.58,2.27,18.9,3.2a12.47,12.47,0,0,0,1.73.12,38.87,38.87,0,0,0,4-.32c1.7-.19,3.58-.29,3.19-3-.09-.64.83-1.44,1.28-2.17h7.69m1.08-1.5h-9.6l-.44.71a6.79,6.79,0,0,1-.42.55,3.52,3.52,0,0,0-1.08,2.63,1.49,1.49,0,0,1,0,.89c-.17.22-1.09.32-1.64.38l-.19,0-.5.05a29.77,29.77,0,0,1-3.35.26,11.59,11.59,0,0,1-1.51-.1c-5.57-.83-12.17-1.85-18.82-3.19a69.47,69.47,0,0,0-14-1.76,31.76,31.76,0,0,0-11.66,2.06A8.19,8.19,0,0,0,65.68,17c-.23.18-.45.35-.68.51l-1.59,1.08,1.44,1.28c.21.19.41.39.61.59A8.69,8.69,0,0,0,67.32,22c5.51,3.1,9.88,7.43,14.59,12.93a12.8,12.8,0,0,0-1,1l-.29.33c-5,5.77-10.19,11.73-15.23,17.66a3.8,3.8,0,0,0-.73,2.24c0,.22,0,.42-.07.57l-.33,1.62,1.64.17.49.09a5.24,5.24,0,0,0,1.19.17,2.7,2.7,0,0,0,1-.19,27.71,27.71,0,0,1,10.73-2,51.2,51.2,0,0,1,8.54.81c2.69.45,5.44,1.07,8.1,1.67,5.45,1.24,11.1,2.51,16.93,2.51a36.61,36.61,0,0,0,6.45-.55V88.74h13l.11-1.39c0-.23,0-.46.07-.68,0-.48.09-.94.09-1.43V77.8c0-19.47,0-39.6-.05-59.4a8.16,8.16,0,0,0-.86-3.13c-.17-.37-.32-.73-.44-1.06l-.34-1Z"/><path class="cls-3" d="M121.7,188.06l-.18-.49c-.14-.36-.3-.73-.47-1.09a8.55,8.55,0,0,1-.88-2.77c-.14-1.93-.12-3.83-.09-5.84,0-.8,0-1.62,0-2.44v-.69l.68-.06.62-.06c.4,0,.73-.08,1-.08h9.38v.75c0,.91,0,1.81,0,2.71,0,2.43,0,4.72-.06,7.06A4.09,4.09,0,0,1,131,187a5.7,5.7,0,0,0-.4.65l-.21.41Z"/><path class="cls-2" d="M126.68,175.29h4.41c0,3.37.08,6.56-.05,9.74,0,.77-.73,1.52-1.13,2.28h-7.69a14.53,14.53,0,0,1-1.3-3.65c-.2-2.69-.06-5.41-.06-8.23.69-.06,1.15-.13,1.61-.14h4.21m0-1.5h-4.22a10.93,10.93,0,0,0-1.12.08c-.19,0-.39,0-.61.06l-1.37.13v1.37q0,1.23,0,2.43c0,1.94,0,3.94.09,5.91a9.22,9.22,0,0,0,1,3c.17.37.32.71.45,1l.36,1h9.65l.42-.81c.09-.18.22-.38.35-.59a4.68,4.68,0,0,0,.94-2.32c.09-2.35.08-4.66.06-7.1,0-.89,0-1.79,0-2.7v-1.5h-5.91Z"/><path class="cls-4" d="M118.63,168.94a101.15,101.15,0,0,1-41.38-9.31c-9.79-4.38-21.51-8.87-34.25-9a3.35,3.35,0,0,1-.8-.12l-.34-.08-.61-.11v-45.3h6c9.36,0,16.81-2.67,22.79-8.17,3.46-3.18,7.14-6.24,10.95-9.11l.2-.14A73.77,73.77,0,0,1,92.23,80.3a15.69,15.69,0,0,1,7-1.74c5.13,0,9.72,3,12.59,8.11a38,38,0,0,1,2.53,5.83c.38,1.06.85,1.37,2.09,1.37,4.86,0,9.68,0,14.49,0h14.64a25.13,25.13,0,0,1,3.21.17c4.17.56,7.34,2.53,8.92,5.52s1.41,6.67-.47,10.41a23,23,0,0,1-3.12,4.39c-.42.51-.85,1-1.27,1.56a11.64,11.64,0,0,1,2.63,8.37c-.38,3.61-2.66,7.17-6.76,10.57l.18.77a25.05,25.05,0,0,1,.57,2.79c.78,6-1.38,10.27-6.61,13.13a4,4,0,0,0-2.35,3c-1.95,8.8-8.22,13.88-17.67,14.31C121.42,168.9,120,168.94,118.63,168.94Z"/><path class="cls-2" d="M99.21,79.31c4.83,0,9.16,2.75,11.93,7.73a37.22,37.22,0,0,1,2.49,5.71,2.5,2.5,0,0,0,2.78,1.87h.06q7.22,0,14.45,0h14.63a24.92,24.92,0,0,1,3.11.16c8.05,1.1,11.56,7.53,7.88,14.85-1.11,2.23-3,4.07-4.67,6.29,4.9,6,3.58,12.53-4,18.65.29,1.31.67,2.61.85,4,.73,5.59-1.27,9.66-6.23,12.37a4.78,4.78,0,0,0-2.72,3.51c-1.92,8.66-7.94,13.31-17,13.72-1.39.06-2.77.1-4.15.1-14.33,0-28-3.38-41.08-9.24-11-4.95-22.27-8.94-34.55-9a6.69,6.69,0,0,1-1-.18V105.8h5.22c8.75,0,16.66-2.26,23.3-8.37,3.47-3.19,7.12-6.22,10.89-9.06A74.45,74.45,0,0,1,92.57,81a14.76,14.76,0,0,1,6.64-1.67m0-1.5a16.29,16.29,0,0,0-7.31,1.82A74.81,74.81,0,0,0,80.71,87l-.2.15a143.15,143.15,0,0,0-11,9.15c-5.83,5.36-13.12,8-22.28,8H40.5V151l1.22.23.31.07a4.33,4.33,0,0,0,1,.14c12.6.1,24.23,4.56,33.95,8.91a102,102,0,0,0,41.69,9.37c1.4,0,2.82,0,4.22-.1,9.81-.45,16.33-5.74,18.36-14.9a3.3,3.3,0,0,1,2-2.51c5.46-3,7.81-7.66,7-13.89a28,28,0,0,0-.58-2.87c0-.1,0-.21-.08-.31,4-3.45,6.28-7.07,6.68-10.77a12.18,12.18,0,0,0-2.44-8.43l.91-1.1a24.41,24.41,0,0,0,3.21-4.53c2-4,2.15-7.9.47-11.1s-5.07-5.31-9.49-5.92a26.9,26.9,0,0,0-3.31-.17H130.92c-5.61,0-10.21,0-14.46,0h0c-1,0-1.15-.15-1.41-.88a40.31,40.31,0,0,0-2.58-5.93c-3-5.4-7.84-8.5-13.25-8.5Z"/><path class="cls-5" d="M147.85,134.54l.54-.45-.53-.08a11.7,11.7,0,0,1-5.55,5.78,4.79,4.79,0,0,0-2.72,3.51c-1.91,8.65-7.94,13.31-17,13.71-15.84.72-30.87-2.72-45.22-9.14-11.06-4.94-22.27-8.94-34.56-9a5.52,5.52,0,0,1-.84-.16v11a8.64,8.64,0,0,0,1,.18c12.29.1,23.5,4.09,34.55,9,14.35,6.42,29.37,9.86,45.23,9.14,9-.41,15.05-5.06,17-13.72a4.78,4.78,0,0,1,2.72-3.51c5-2.71,7-6.78,6.23-12.37C148.53,137.16,148.14,135.85,147.85,134.54Z"/></svg>