<svg id="Layer_1" data-name="Layer 1" xmlns="http://www.w3.org/2000/svg" viewBox="0 0 200 200"><defs><style>.cls-1{fill:#b4d7ad;}.cls-2{fill:#fc6;}</style></defs><title>home_icon_established</title><g id="TRWNVk"><path class="cls-1" d="M132.41,6.5c.46,1.34,1.31,2.68,1.31,4q.12,36.19.06,72.39c0,.68-.1,1.35-.17,2.17h-11V54.64c-12.47,3-23.83-1.58-35.46-3.53-7.39-1.24-14.65-1.54-21.76,1.38-.58.24-1.41-.11-2.12-.19.16-.78.07-1.78.52-2.32C69.33,43.45,75,37,80.58,30.5c.56-.64,1.24-1.19,2.07-2C77.59,22.5,72.31,16.85,65.39,13A15.11,15.11,0,0,1,63,10.86,13.64,13.64,0,0,1,65.64,9.1C74.56,5.66,83.52,7,92.53,8.84c6.78,1.38,13.63,2.47,20.47,3.47a24.62,24.62,0,0,0,6.23-.22c1.84-.2,3.88-.31,3.45-3.24-.1-.7.9-1.56,1.39-2.35Z"/><path class="cls-1" d="M124.07,193.5c-.49-1.32-1.31-2.61-1.41-4-.21-2.91-.06-5.85-.06-8.91.74-.06,1.24-.14,1.74-.15h9.34c0,3.65.09,7.1-.05,10.55,0,.84-.8,1.65-1.22,2.47Z"/><path class="cls-2" d="M156.19,116.14c5.31,6.54,3.88,13.57-4.35,20.2.31,1.41.73,2.83.92,4.27.79,6.06-1.38,10.47-6.75,13.41a5.14,5.14,0,0,0-2.95,3.8c-2.08,9.38-8.6,14.42-18.38,14.86-17.18.78-33.45-3-49-9.9-12-5.36-24.12-9.69-37.43-9.79a8.19,8.19,0,0,1-1.08-.2V105.2h5.31c9.62.05,18.3-2.37,25.58-9.06,3.76-3.46,7.72-6.74,11.8-9.82a81.49,81.49,0,0,1,12.09-8c7.94-4,15.79-1.22,20.12,6.56a40.5,40.5,0,0,1,2.69,6.19c.56,1.57,1.44,2,3.08,2,10.5-.07,21,0,31.5,0a25.19,25.19,0,0,1,3.37.17c8.73,1.19,12.52,8.16,8.55,16.09C160.05,111.73,158,113.73,156.19,116.14Z"/></g></svg>