<svg id="Layer_1" data-name="Layer 1" xmlns="http://www.w3.org/2000/svg" viewBox="0 0 200 200"><defs><style>.cls-1{fill:#fc6;}.cls-2{fill:#b4d7ad;}</style></defs><title>home_icon_meetings</title><path class="cls-1" d="M121.39,117.11a21.39,21.39,0,1,0,21.38-21.39A21.41,21.41,0,0,0,121.39,117.11Z"/><path class="cls-2" d="M117.11,173h51.61a4.27,4.27,0,0,0,4.28-4.28v-8.84a30.06,30.06,0,0,0-9.34-21.38,29.78,29.78,0,0,1-41.77,0,29.81,29.81,0,0,0-9.06,21.38v8.84A4.28,4.28,0,0,0,117.11,173Z"/><path class="cls-1" d="M35.84,48.67a21.39,21.39,0,1,0,42.77,0,21.39,21.39,0,1,0-42.77,0Z"/><path class="cls-2" d="M31.28,104.28H82.89A4.28,4.28,0,0,0,87.17,100V91.45a29.81,29.81,0,0,0-9.06-21.39,29.78,29.78,0,0,1-41.77,0A30.06,30.06,0,0,0,27,91.45V100A4.28,4.28,0,0,0,31.28,104.28Z"/><path class="cls-1" d="M145.29,87.42a30,30,0,0,1,9.31,2.2A55,55,0,0,0,86.91,46.08c.07.87.26,1.7.26,2.59a29.38,29.38,0,0,1-.69,6.27,47,47,0,0,1,58.81,32.48Z"/><path class="cls-1" d="M54.77,112.83H46A55.65,55.65,0,0,0,100,155.61c1.59,0,3.16-.11,4.73-.24a38.07,38.07,0,0,1,2.08-8.87,46.56,46.56,0,0,1-52-33.67Z"/></svg>