<svg id="Layer_1" data-name="Layer 1" xmlns="http://www.w3.org/2000/svg" viewBox="0 0 200 200"><defs><style>.cls-1{fill:#b4d7ad;}.cls-1,.cls-2{stroke:#706252;stroke-miterlimit:10;stroke-width:1.5px;}.cls-2{fill:#fc6;}</style></defs><title>home_icon</title><path class="cls-1" d="M105.19,156.54v-1.29a18.69,18.69,0,0,0-18.67-18.67H39.84a18.68,18.68,0,0,0-18.67,18.67v1.29c-4.67,1.62-4.67,4.6-4.67,8a9.34,9.34,0,0,0,9.34,9.34h74.68a9.34,9.34,0,0,0,9.34-9.34c0-3.44,0-6.42-4.67-8Zm0,0"/><path class="cls-2" d="M179.25,116.06,116.64,75.34l5.09-7.82a9.68,9.68,0,0,0,12.92-2.74l2.55-3.91A9.34,9.34,0,0,0,134.46,48L103.15,27.59a9.33,9.33,0,0,0-12.91,2.74l-2.55,3.91a9.68,9.68,0,0,0,2.74,12.92L70.07,78.46A9.68,9.68,0,0,0,57.15,81.2l-2.54,3.91A9.34,9.34,0,0,0,57.34,98l31.31,20.36a9.33,9.33,0,0,0,12.91-2.74l2.55-3.91a9.67,9.67,0,0,0-2.74-12.92L106.46,91l62.61,40.72a9.34,9.34,0,0,0,10.18-15.66Zm0,0"/></svg>