<svg id="Layer_1" data-name="Layer 1" xmlns="http://www.w3.org/2000/svg" viewBox="0 0 200 200"><defs><style>.cls-1{fill:#b4d7ad;}.cls-2{fill:#706252;}</style></defs><title>home_icon</title><path class="cls-1" d="M95.28,171.6a29.93,29.93,0,0,1-4.82-.29,3,3,0,0,1-1.85-1.42c-.49-1.28-2.17-8.69-3.68-16.23-1.32-6.56-5.51-24-7.49-31.06C70,96,65.84,84.31,59.78,72.48,52.6,58.55,46,49,34.36,35.94c-1.61-1.8-2.06-2.65-1.74-3.35A1.14,1.14,0,0,1,33.78,32a8.51,8.51,0,0,1,2.46.58c5.2,1.74,13.6,7.95,19.54,14.45,10.77,11.7,16,19.25,20.08,28.85,5.81,13.86,8.3,21.63,14,43.79,1,4,3.94,15.23,5.26,18.42,1-2.34,3.28-9,6-18,2-6.53,4.94-14.94,8.71-25,4-10.64,10-22.85,14.68-29.68,4.39-6.37,5.25-7.5,7.65-10.06a48,48,0,0,0,4.07-4.74,22.42,22.42,0,0,0-7.68,3.76c-5.9,4.74-12.91,13.59-15.29,19.33a18.74,18.74,0,0,1-1.3,2.73,1.07,1.07,0,0,1-.81.41c-.44,0-1.78,0-1.85-7,0-10.82,5.73-22.68,14-28.85,5.83-4.32,8-5.11,20.84-7.63,4.86-1,11.69-2.5,14.92-3.34,4.34-1.15,5.94-1.53,6.85-1.53a1.4,1.4,0,0,1,1.46.9c.23.8-.95,4.71-1.18,5.48-1.2,3.79-1.5,5.55-2,11.77-1,12.15-2.1,15.85-6.15,20.83-6,7.45-14.46,12.12-25.07,13.87a28.74,28.74,0,0,0-5.47,1.3C124.2,84.7,118.28,99,112.83,118a217.64,217.64,0,0,0-6.8,31.61c-2.92,19.13-3.26,20.92-5.88,21.67A29.78,29.78,0,0,1,95.28,171.6Z"/><path class="cls-2" d="M166,29.15c.49,0,.65.15.76.42a25.56,25.56,0,0,1-1.2,5c-1.2,3.79-1.52,5.59-2,11.93-1,12-2,15.55-6,20.42-5.9,7.3-14.24,11.89-24.61,13.6a27.38,27.38,0,0,0-5.74,1.4c-3.59,2.31-9.5,16.51-15,35.9a217.53,217.53,0,0,0-6.82,31.71c-2.88,18.83-3.27,20.46-5.35,21.06a27.49,27.49,0,0,1-4.66.27,26.91,26.91,0,0,1-4.63-.27,2.34,2.34,0,0,1-1.36-1c-.44-1.16-2.11-8.54-3.63-16.08-1.36-6.78-5.58-24.25-7.5-31.11C70.62,95.59,66.47,83.9,60.45,72.14c-7.14-13.85-13.88-23.58-25.53-36.7-1.69-1.88-2.09-2.74-1.14-2.74a8.4,8.4,0,0,1,2.22.54c5,1.68,13.36,7.82,19.23,14.25,10.69,11.6,16,19.18,19.94,28.64C81,90,83.43,97.63,89.13,119.8c3.6,13.88,5.36,19.64,6,19.64h0c.52-.16,3.43-8.58,6.67-19.23,1.91-6.22,4.78-14.52,8.69-24.93,4-10.73,10-22.77,14.6-29.52,4.43-6.42,5.23-7.46,7.58-10,2.51-2.63,4.63-5.26,4.63-5.7,0-.24-.23-.35-.61-.35-1.63,0-6.16,2-8.65,4-6,4.82-13.08,13.76-15.51,19.62a18.3,18.3,0,0,1-1.2,2.56.31.31,0,0,1-.22.12c-.58,0-1.06-2.67-1.1-6.27,0-10.57,5.63-22.22,13.72-28.24,5.71-4.23,7.74-5,20.55-7.5,5-1,11.77-2.51,15-3.35,4-1.07,5.83-1.5,6.66-1.5m0-1.5c-1,0-2.56.37-7.05,1.55-3.21.84-10,2.37-14.86,3.33-13,2.56-15.2,3.35-21.15,7.77-8.48,6.3-14.37,18.41-14.33,29.45,0,2.72.08,7.76,2.6,7.76a1.8,1.8,0,0,0,1.34-.62l0,0,0,0A20.24,20.24,0,0,0,114,73.89c2.34-5.63,9.24-14.34,15.06-19A22.12,22.12,0,0,1,134.12,52c-.67.8-1.51,1.73-2.47,2.75-2.45,2.61-3.32,3.75-7.73,10.15-4.69,6.89-10.76,19.15-14.77,29.84-3.78,10.06-6.72,18.48-8.73,25-2.34,7.71-4.17,13.16-5.27,16.14-1.43-4.38-3.69-13.1-4.57-16.47-5.7-22.19-8.2-30-14-43.88-4.09-9.7-9.38-17.31-20.22-29.08-6-6.58-14.54-12.88-19.86-14.65a8.93,8.93,0,0,0-2.69-.62,1.89,1.89,0,0,0-1.85,1.09c-.57,1.28.47,2.58,1.88,4.15C45.34,49.44,52,59,59.12,72.82c6,11.78,10.14,23.46,17.6,50,2,7.07,6.16,24.45,7.47,31,1.36,6.75,3.17,14.91,3.7,16.32v0l0,0A3.72,3.72,0,0,0,90.26,172a28.82,28.82,0,0,0,5,.32,30.15,30.15,0,0,0,5-.31c3.11-.9,3.48-2.73,6.46-22.29a217.87,217.87,0,0,1,6.78-31.53c6.17-21.59,11.76-33.26,14.37-35A30.94,30.94,0,0,1,133.13,82c10.8-1.78,19.39-6.54,25.54-14.14C162.83,62.72,164,59,165,46.61c.5-6.15.8-7.89,2-11.6,1.49-4.86,1.28-5.58,1.21-5.85l0-.06,0-.07A2.11,2.11,0,0,0,166,27.65Z"/></svg>