<svg id="Layer_1" data-name="Layer 1" xmlns="http://www.w3.org/2000/svg" viewBox="0 0 200 200"><defs><style>.cls-1{fill:#b4d7ad;}</style></defs><title>home_icon_vegetarian</title><path class="cls-1" d="M166.64,30.65c-3.19.84-9.93,2.36-14.95,3.35-12.81,2.52-14.84,3.27-20.55,7.5-8.1,6-13.76,17.67-13.72,28.24,0,4,.64,6.9,1.32,6.15a18.71,18.71,0,0,0,1.19-2.56c2.44-5.86,9.5-14.8,15.52-19.62,3.07-2.48,9.25-4.91,9.25-3.63,0,.44-2.11,3.07-4.62,5.7s-3.15,3.55-7.58,10c-4.59,6.75-10.57,18.79-14.6,29.52-3.91,10.41-6.78,18.71-8.7,24.93-3.23,10.65-6.14,19.07-6.66,19.23s-2.39-5.47-6.06-19.63c-5.71-22.17-8.14-29.79-14-43.67-4-9.46-9.26-17-19.95-28.64-5.86-6.43-14.2-12.57-19.22-14.25-3.27-1.11-3.55-.55-1.08,2.2C53.92,48.56,60.66,58.29,67.8,72.14,73.82,83.9,78,95.59,85.51,122.4c1.91,6.86,6.14,24.33,7.5,31.11,1.51,7.54,3.19,14.92,3.63,16.08a2.35,2.35,0,0,0,1.35,1,40.18,40.18,0,0,0,9.3,0c2.07-.6,2.47-2.23,5.34-21.06a218.85,218.85,0,0,1,6.82-31.71c5.55-19.39,11.45-33.59,15-35.9a27.53,27.53,0,0,1,5.75-1.4c10.37-1.71,18.71-6.3,24.61-13.6,4-4.87,5-8.46,6-20.42.52-6.34.84-8.14,2-11.93a26,26,0,0,0,1.19-5C173.78,28.86,173.15,28.94,166.64,30.65Z"/></svg>