<svg id="Layer_1" data-name="Layer 1" xmlns="http://www.w3.org/2000/svg" viewBox="0 0 200 200"><defs><style>.cls-1{fill:#b4d7ad;}.cls-2{fill:#706252;}.cls-3{fill:#fc6;}</style></defs><title>home_icon</title><path class="cls-1" d="M81.08,146.47c-4.34,0-7.87-2.93-7.87-6.53s3.53-6.53,7.87-6.53h37.84c4.34,0,7.87,2.93,7.87,6.53s-3.53,6.53-7.87,6.53Z"/><path class="cls-2" d="M118.92,134.16c3.93,0,7.12,2.6,7.12,5.78s-3.19,5.78-7.12,5.78H81.08c-3.93,0-7.12-2.59-7.12-5.78s3.19-5.78,7.12-5.78h37.84m0-1.5H81.08c-4.75,0-8.62,3.27-8.62,7.28s3.87,7.28,8.62,7.28h37.84c4.75,0,8.62-3.26,8.62-7.28s-3.87-7.28-8.62-7.28Z"/><path class="cls-1" d="M81.08,166c-4.34,0-7.87-2.93-7.87-6.53s3.53-6.53,7.87-6.53h37.84c4.34,0,7.87,2.93,7.87,6.53s-3.53,6.53-7.87,6.53Z"/><path class="cls-2" d="M118.92,153.68c3.93,0,7.12,2.59,7.12,5.78s-3.19,5.78-7.12,5.78H81.08c-3.93,0-7.12-2.59-7.12-5.78s3.19-5.78,7.12-5.78h37.84m0-1.5H81.08c-4.75,0-8.62,3.27-8.62,7.28s3.87,7.28,8.62,7.28h37.84c4.75,0,8.62-3.27,8.62-7.28s-3.87-7.28-8.62-7.28Z"/><path class="cls-1" d="M86.43,185.76c-4.35,0-7.88-2.93-7.88-6.53s3.53-6.53,7.88-6.53h27.14c4.35,0,7.88,2.93,7.88,6.53s-3.53,6.53-7.88,6.53Z"/><path class="cls-2" d="M113.57,173.45c3.93,0,7.13,2.59,7.13,5.78s-3.2,5.78-7.13,5.78H86.43c-3.93,0-7.13-2.59-7.13-5.78s3.2-5.78,7.13-5.78h27.14m0-1.5H86.43c-4.76,0-8.63,3.27-8.63,7.28s3.87,7.28,8.63,7.28h27.14c4.76,0,8.63-3.27,8.63-7.28s-3.87-7.28-8.63-7.28Z"/><path class="cls-3" d="M76.15,124.79a6.28,6.28,0,0,1-6.25-6.19c-1.36-13-5.54-20.39-9.59-27.52C55.9,83.31,51.73,76,51.73,62.51a48.27,48.27,0,0,1,96.54,0c0,13.48-4.17,20.81-8.58,28.57-3.79,6.67-7.71,13.56-9.31,25.18,0,.29-.08.62-.11,1a11.35,11.35,0,0,1-1.07,4.53,6.27,6.27,0,0,1-5.35,3Zm27.13-53.18a2,2,0,0,1,1.79,1.07c.29.59.42,1.56-.59,2.89-1.72,2.26-7.64,11.53-11.66,36.07a.57.57,0,0,0,.1.48.63.63,0,0,0,.49.19h4.3a1,1,0,0,0,1-1V97.72a4.13,4.13,0,0,1,4-4.09,13.39,13.39,0,0,0,9.8-4.78c8.15-9.67,5.88-30.74,5.14-37.67,0-.14-.1-.58-.54-.58l-.2,0c-16,4.17-25.9,10.65-29.37,19.26-3.16,7.85-.17,15.88,2.17,20.36C91.38,77.88,99.33,73.17,101.84,72A3.38,3.38,0,0,1,103.28,71.61Z"/><path class="cls-2" d="M100,15a47.58,47.58,0,0,1,47.52,47.52c0,13.28-4.12,20.53-8.48,28.2-3.83,6.73-7.78,13.69-9.41,25.45,0,.3-.07.66-.11,1a10.79,10.79,0,0,1-1,4.17,5.51,5.51,0,0,1-4.71,2.67H76.15a5.52,5.52,0,0,1-5.5-5.45C69.27,105.34,65.05,97.9,61,90.7,56.6,83,52.48,75.78,52.48,62.51A47.58,47.58,0,0,1,100,15M90.16,92.65v0c1-13.7,9.43-18.74,12-20a2.61,2.61,0,0,1,1.11-.3,1.2,1.2,0,0,1,1.12.65c.2.4.26,1.08-.52,2.1-1.74,2.3-7.75,11.69-11.8,36.41a1.33,1.33,0,0,0,.27,1.09,1.36,1.36,0,0,0,1.06.45h4.3a1.7,1.7,0,0,0,1.7-1.7V97.72a3.39,3.39,0,0,1,3.29-3.34,14.15,14.15,0,0,0,10.33-5c8.35-9.91,6.06-31.23,5.3-38.23a1.3,1.3,0,0,0-1.66-1.2C100.4,54.13,90.35,60.75,86.79,69.6c-3.85,9.54,1.06,19.27,3.37,23.05M100,13.49a49.08,49.08,0,0,0-49,49c0,13.67,4.21,21.09,8.67,28.94,4,7,8.15,14.33,9.5,27.23a7,7,0,0,0,7,6.86h47.7a7,7,0,0,0,6-3.4,11.73,11.73,0,0,0,1.16-4.79c0-.36.07-.7.11-1,1.58-11.47,5.46-18.3,9.22-24.91C144.8,83.6,149,76.19,149,62.51a49.08,49.08,0,0,0-49-49ZM89.32,87.82c-2-4.51-3.76-11.17-1.14-17.66,3.36-8.35,13-14.66,28.67-18.76.77,7.08,2.9,27.63-5,37a12.7,12.7,0,0,1-9.28,4.52,4.88,4.88,0,0,0-4.69,4.84v13.64a.2.2,0,0,1-.2.2H93.59c4-24.22,9.8-33.32,11.49-35.54,1.31-1.72,1-3,.67-3.67a2.72,2.72,0,0,0-2.47-1.49,4,4,0,0,0-1.76.44c-2.44,1.16-9.81,5.51-12.2,16.52Z"/><path class="cls-3" d="M76.15,124.79a6.28,6.28,0,0,1-6.25-6.19c-1.36-13-5.54-20.39-9.59-27.52C55.9,83.31,51.73,76,51.73,62.51a48.27,48.27,0,0,1,96.54,0c0,13.48-4.17,20.81-8.58,28.57-3.79,6.67-7.71,13.56-9.31,25.18,0,.29-.08.62-.11,1a11.35,11.35,0,0,1-1.07,4.53,6.27,6.27,0,0,1-5.35,3Zm27.13-53.18a2,2,0,0,1,1.79,1.07c.29.59.42,1.56-.59,2.89-1.72,2.26-7.64,11.53-11.66,36.07a.57.57,0,0,0,.1.48.63.63,0,0,0,.49.19h4.3a1,1,0,0,0,1-1V97.72a4.13,4.13,0,0,1,4-4.09,13.39,13.39,0,0,0,9.8-4.78c8.15-9.67,5.88-30.74,5.14-37.67,0-.14-.1-.58-.54-.58l-.2,0c-16,4.17-25.9,10.65-29.37,19.26-3.16,7.85-.17,15.88,2.17,20.36C91.38,77.88,99.33,73.17,101.84,72A3.38,3.38,0,0,1,103.28,71.61Z"/><path class="cls-2" d="M100,15a47.58,47.58,0,0,1,47.52,47.52c0,13.28-4.12,20.53-8.48,28.2-3.83,6.73-7.78,13.69-9.41,25.45,0,.3-.07.66-.11,1a10.79,10.79,0,0,1-1,4.17,5.51,5.51,0,0,1-4.71,2.67H76.15a5.52,5.52,0,0,1-5.5-5.45C69.27,105.34,65.05,97.9,61,90.7,56.6,83,52.48,75.78,52.48,62.51A47.58,47.58,0,0,1,100,15M90.16,92.65v0c1-13.7,9.43-18.74,12-20a2.61,2.61,0,0,1,1.11-.3,1.2,1.2,0,0,1,1.12.65c.2.4.26,1.08-.52,2.1-1.74,2.3-7.75,11.69-11.8,36.41a1.33,1.33,0,0,0,.27,1.09,1.36,1.36,0,0,0,1.06.45h4.3a1.7,1.7,0,0,0,1.7-1.7V97.72a3.39,3.39,0,0,1,3.29-3.34,14.15,14.15,0,0,0,10.33-5c8.35-9.91,6.06-31.23,5.3-38.23a1.3,1.3,0,0,0-1.66-1.2C100.4,54.13,90.35,60.75,86.79,69.6c-3.85,9.54,1.06,19.27,3.37,23.05M100,13.49a49.08,49.08,0,0,0-49,49c0,13.67,4.21,21.09,8.67,28.94,4,7,8.15,14.33,9.5,27.23a7,7,0,0,0,7,6.86h47.7a7,7,0,0,0,6-3.4,11.73,11.73,0,0,0,1.16-4.79c0-.36.07-.7.11-1,1.58-11.47,5.46-18.3,9.22-24.91C144.8,83.6,149,76.19,149,62.51a49.08,49.08,0,0,0-49-49ZM89.32,87.82c-2-4.51-3.76-11.17-1.14-17.66,3.36-8.35,13-14.66,28.67-18.76.77,7.08,2.9,27.63-5,37a12.7,12.7,0,0,1-9.28,4.52,4.88,4.88,0,0,0-4.69,4.84v13.64a.2.2,0,0,1-.2.2H93.59c4-24.22,9.8-33.32,11.49-35.54,1.31-1.72,1-3,.67-3.67a2.72,2.72,0,0,0-2.47-1.49,4,4,0,0,0-1.76.44c-2.44,1.16-9.81,5.51-12.2,16.52Z"/></svg>