<svg id="Layer_1" data-name="Layer 1" xmlns="http://www.w3.org/2000/svg" viewBox="0 0 200 200"><defs><style>.cls-1{fill:#b4d7ad;}.cls-2{fill:#fc6;}</style></defs><title>home_icon_consensus</title><path class="cls-1" d="M104.69,158.87v-1.3A18.7,18.7,0,0,0,86,138.9H39.34a18.69,18.69,0,0,0-18.67,18.67v1.3c-4.67,1.62-4.67,4.59-4.67,8a9.33,9.33,0,0,0,9.34,9.33H100a9.33,9.33,0,0,0,9.34-9.33c0-3.45,0-6.42-4.67-8Zm0,0"/><path class="cls-2" d="M179.75,113.39,117.14,72.67l5.09-7.83a9.66,9.66,0,0,0,12.92-2.73l2.55-3.92A9.33,9.33,0,0,0,135,45.28L103.65,24.92a9.32,9.32,0,0,0-12.91,2.73l-2.55,3.92a9.66,9.66,0,0,0,2.74,12.91L70.57,75.79a9.67,9.67,0,0,0-12.92,2.73l-2.54,3.92a9.33,9.33,0,0,0,2.73,12.91l31.31,20.36A9.33,9.33,0,0,0,102.06,113l2.55-3.92a9.65,9.65,0,0,0-2.74-12.91L107,88.32,169.57,129a9.33,9.33,0,1,0,10.18-15.65Zm0,0"/></svg>