<svg id="Layer_1" data-name="Layer 1" xmlns="http://www.w3.org/2000/svg" viewBox="0 0 200 200"><defs><style>.cls-1{fill:#b4d7ad;}.cls-2{fill:#fc6;}</style></defs><title>home_icon_eco</title><path class="cls-1" d="M118.92,134.66H81.08c-3.93,0-7.12,2.6-7.12,5.78s3.19,5.78,7.12,5.78h37.84c3.93,0,7.12-2.59,7.12-5.78S122.85,134.66,118.92,134.66Z"/><path class="cls-1" d="M126,157c0-3.19-3.19-5.78-7.12-5.78H81.08c-3.93,0-7.12,2.59-7.12,5.78s3.19,5.78,7.12,5.78h37.84C122.85,162.74,126,160.15,126,157Z"/><path class="cls-1" d="M86.43,168c-3.93,0-7.13,2.59-7.13,5.78s3.2,5.78,7.13,5.78h27.14c3.93,0,7.13-2.59,7.13-5.78s-3.2-5.78-7.13-5.78Z"/><path class="cls-2" d="M128.56,126.87a10.79,10.79,0,0,0,1-4.17c0-.38.07-.74.11-1,1.63-11.76,5.58-18.72,9.41-25.45,4.36-7.67,8.48-14.92,8.48-28.2a47.52,47.52,0,0,0-95,0c0,13.27,4.12,20.52,8.48,28.19,4.09,7.2,8.31,14.64,9.69,27.89a5.52,5.52,0,0,0,5.5,5.45h47.7A5.51,5.51,0,0,0,128.56,126.87ZM92.08,117c4-24.72,10.06-34.11,11.8-36.41.78-1,.72-1.7.52-2.1a1.2,1.2,0,0,0-1.12-.65,2.61,2.61,0,0,0-1.11.3c-2.58,1.22-11,6.26-12,20v0c-2.31-3.78-7.22-13.51-3.37-23.05,3.56-8.85,13.61-15.47,29.88-19.7a1.3,1.3,0,0,1,1.66,1.2c.76,7,3,28.32-5.3,38.23a14.15,14.15,0,0,1-10.33,5,3.39,3.39,0,0,0-3.29,3.34v13.64a1.7,1.7,0,0,1-1.7,1.7h-4.3a1.36,1.36,0,0,1-1.06-.45A1.33,1.33,0,0,1,92.08,117Z"/></svg>