<svg id="Layer_1" data-name="Layer 1" xmlns="http://www.w3.org/2000/svg" viewBox="0 0 587.55 506.19"><defs><style>.cls-1{fill:#fff;}</style></defs><title>icon_document</title><path class="cls-1" d="M576.17,28.59l-.56-.06-.68-.06c-.46,0-.93,0-1.42,0-1,0-2,0-3,.08-2,.13-4.14.37-6.24.69-4.2.64-8.44,1.54-12.66,2.58-8.45,2.09-16.83,4.72-25.12,7.61a475.11,475.11,0,0,0-48.7,20.43,568.52,568.52,0,0,0-90.44,54.66c-28.3,21-54.57,44.79-77.35,71.53s-42,56.53-55.44,88.8l-.47,1.12-.89.79h0a16.79,16.79,0,0,1-1.42,1.13,10,10,0,0,1-2.26,1.25,6.86,6.86,0,0,1-2.28.5,6.27,6.27,0,0,1-6-3.4,7.67,7.67,0,0,1-.68-1.82,10.93,10.93,0,0,1-.29-2.33c0-.63,0-1.19.05-1.72.07-1.06.2-2,.34-2.93.6-3.64,1.43-6.91,2.26-10.19l2.5-9.67c.81-3.17,1.6-6.35,2.14-9.35.13-.74.24-1.47.31-2.14a10.18,10.18,0,0,0,.08-1.59c0-.11-.07-.16.17.39a3.53,3.53,0,0,0,1.14,1.3,3.76,3.76,0,0,0,2.28.69,2.69,2.69,0,0,0,1-.19l.12-.06h0a2.9,2.9,0,0,0-.43.3,25,25,0,0,0-2.89,3c-.94,1.12-1.88,2.31-2.76,3.6a157.42,157.42,0,0,0-9.73,16.7c-6,11.69-11.54,23.81-17.87,35.71-1.58,3-3.23,5.94-5,8.86a76.42,76.42,0,0,1-5.93,8.65,26.38,26.38,0,0,1-2,2.22,7.67,7.67,0,0,1-2,1.42,4.94,4.94,0,0,1-1.15.39,4.4,4.4,0,0,1-1.88,0,4.34,4.34,0,0,1-2-1,5,5,0,0,1-.95-1.23,5.71,5.71,0,0,1-.56-1.61,7.11,7.11,0,0,1-.14-1.08,13.39,13.39,0,0,1,0-1.66c.05-1,.15-1.92.27-2.81.49-3.53,1.2-6.8,1.91-10.09,1.42-6.53,3-13,4.13-19.31a31.7,31.7,0,0,0,.48-4.38c0-.28,0-.56,0-.58a1.46,1.46,0,0,0,.13.32,2.46,2.46,0,0,0,.48.62,2.79,2.79,0,0,0,1.2.67,2.55,2.55,0,0,0,1.67-.08c.19-.09.19-.11.16-.08a3.26,3.26,0,0,0-.48.45,29.32,29.32,0,0,0-2.68,3.52c-.88,1.31-1.75,2.68-2.59,4.07-3.37,5.58-6.59,11.38-9.57,17.2s-5.85,11.85-8.73,17.83-5.78,12-8.79,18q-2.25,4.49-4.67,8.93c-.79,1.48-1.66,3-2.49,4.42s-1.72,2.93-2.69,4.36l-.71,1.09c-.24.36-.45.7-.81,1.17a7.11,7.11,0,0,1-.61.72,5.18,5.18,0,0,1-1.1.92,4,4,0,0,1-1.35.53,3.56,3.56,0,0,1-2.36-.41,3.68,3.68,0,0,1-1.28-1.23,4.6,4.6,0,0,1-.43-.87,8.38,8.38,0,0,1-.41-2c0-.54-.06-1-.06-1.49,0-.93,0-1.81.07-2.68.19-3.46.55-6.76.86-10.06a91.86,91.86,0,0,0,.55-9.56,9.18,9.18,0,0,0-.19-1.73c0-.07,0-.05,0,.07a2.33,2.33,0,0,0,.25.33,2.17,2.17,0,0,0,.76.51,2.23,2.23,0,0,0,1.07.19,1.78,1.78,0,0,0,.63-.14.88.88,0,0,0,.23-.12,4.41,4.41,0,0,0-.43.46c-.19.23-.4.51-.6.8-.41.59-.81,1.24-1.21,1.91-1.58,2.71-3,5.67-4.42,8.63s-2.72,6-4,9c-2.62,6.07-5.13,12.2-7.6,18.35l-3.68,9.26c-1.28,3.19-2.73,6.28-4.26,9.31-3.06,6-6.58,11.76-9.48,17.51-.72,1.43-1.37,2.88-2,4.32s-1.2,3-1.74,4.54a74.2,74.2,0,0,0-2.69,9.18,25.69,25.69,0,0,0-.65,8.81,6.63,6.63,0,0,0,1.22,3.15,4.3,4.3,0,0,0,2.53,1.48,12.36,12.36,0,0,0,4,.09,30.24,30.24,0,0,0,4.44-.87,68,68,0,0,0,9-3.22l2.29-1c.89-.37,1.72-.67,2.55-.95,1.65-.55,3.26-1,4.88-1.51,3.23-.93,6.44-1.81,9.63-2.69s6.38-1.78,9.49-2.75c1.56-.48,3.1-1,4.58-1.53.74-.28,1.47-.56,2.14-.86a11.8,11.8,0,0,0,1.7-.88l.13-.1a1.27,1.27,0,0,0-.3.46,2.26,2.26,0,0,0-.18,1,2.35,2.35,0,0,0,.3,1.11,1.57,1.57,0,0,0,.56.63c.08,0-.16-.07-.42-.15s-.59-.15-.94-.22c-.69-.14-1.44-.25-2.22-.34l-2.45-.24a19.72,19.72,0,0,1-2.89-.5,8.37,8.37,0,0,1-1.78-.65,5.31,5.31,0,0,1-1.17-.8,4.07,4.07,0,0,1-1.2-1.94,4,4,0,0,1,.12-2.39,4.93,4.93,0,0,1,.72-1.32,8.19,8.19,0,0,1,1.35-1.39A19.67,19.67,0,0,1,168,411a85.88,85.88,0,0,1,9.3-4.58c3.09-1.34,6.19-2.61,9.28-3.85,6.19-2.49,12.38-4.88,18.47-7.41,3-1.26,6.06-2.56,9-4q1.08-.53,2.13-1.08c.68-.36,1.37-.75,2.08-1.16,1.38-.8,2.75-1.64,4-2.51a14.66,14.66,0,0,0,1.6-1.27,3.55,3.55,0,0,0,.34-.37,1.26,1.26,0,0,0-.16.46,2,2,0,0,0,0,.74,2.23,2.23,0,0,0,.32.84,1.8,1.8,0,0,0,.63.61c.08,0,.05,0,0,0a4.5,4.5,0,0,0-.73-.14c-.64-.07-1.39-.1-2.16-.11-3.12,0-6.45.26-9.86.34a38.52,38.52,0,0,1-5.41-.15,13.37,13.37,0,0,1-1.59-.28,7.11,7.11,0,0,1-2-.8,4.47,4.47,0,0,1-1.34-1.25,4,4,0,0,1-.74-2.26,4.66,4.66,0,0,1,.34-1.79A6.68,6.68,0,0,1,202,380a12.67,12.67,0,0,1,2.23-2.44c.73-.65,1.44-1.17,2.15-1.69,1.42-1.06,2.84-2,4.27-2.93,5.73-3.68,11.57-6.92,17.45-10.12,23.5-12.68,47.5-24.16,71.19-36.12,3-1.5,5.9-3,8.81-4.54s5.75-3.1,8.58-4.77a80.34,80.34,0,0,0,8-5.19A11.8,11.8,0,0,0,326,311l.06-.09a1.85,1.85,0,0,0-.23.74,2.65,2.65,0,0,0,.16,1.24,2.61,2.61,0,0,0,.73,1.05,1.86,1.86,0,0,0,.72.42c.09,0-.17,0-.44,0s-.61,0-.95,0c-.7.05-1.46.15-2.22.27-3.08.49-6.29,1.24-9.46,2s-6.37,1.64-9.56,2.51c-6.38,1.76-12.74,3.62-19.16,5.43-3.22.9-6.42,1.81-9.76,2.62-.84.2-1.69.39-2.62.56a15.62,15.62,0,0,1-1.62.22H271a4,4,0,0,1-1.51-.32c-1.76.22-2.75-5.2-1.59-5.07a4,4,0,0,1,.84-1,8.12,8.12,0,0,1,.85-.66l.67-.43c.42-.25.83-.48,1.21-.69l2.16-1.2c5.74-3.22,11.46-6.58,17.16-10,11.4-6.77,22.74-13.69,34-20.66,22.57-14,45-28.15,67.11-42.84,5.49-3.68,11-7.4,16.31-11.23C410.93,232,413.59,230,416,228c1.16-.94,2.43-2.13,3.65-3.2l3.68-3.31c9.78-8.9,19.34-18.1,29-27.23,4.82-4.56,9.77-9.13,14.69-13.58s9.81-8.93,14.68-13.44q14.61-13.5,28.89-27.33c9.51-9.23,18.88-18.59,28-28.15s18-19.34,26.38-29.48c4.16-5.07,8.19-10.24,11.93-15.56a114.63,114.63,0,0,0,9.87-16.43,42.07,42.07,0,0,0,3-8.46c.62-2.76.65-5.41-.13-7.23A6.14,6.14,0,0,0,588,32.29a10.45,10.45,0,0,0-3-1.74,21.14,21.14,0,0,0-4-1.07C579.48,29.24,577.79,28.89,576.17,28.59Zm1.47-8.68c1.66.31,3.21.64,5,.92a30.68,30.68,0,0,1,5.63,1.57,19.29,19.29,0,0,1,5.53,3.3,14.91,14.91,0,0,1,4,5.65A17.46,17.46,0,0,1,599,37.84a26.15,26.15,0,0,1-.69,5.91A49.08,49.08,0,0,1,594.62,54a123.34,123.34,0,0,1-10.7,17.67c-3.93,5.54-8.1,10.84-12.39,16-8.59,10.34-17.66,20.19-26.92,29.82s-18.75,19-28.36,28.25-19.34,18.33-29.16,27.33q-7.36,6.75-14.79,13.42c-5,4.44-9.8,8.87-14.65,13.41-9.69,9.06-19.33,18.24-29.26,27.19l-3.73,3.34c-1.29,1.12-2.44,2.2-3.86,3.35-2.73,2.23-5.45,4.2-8.19,6.15-5.48,3.9-11,7.62-16.57,11.3-22.26,14.68-44.83,28.77-67.52,42.68q-17,10.41-34.23,20.57c-5.74,3.37-11.5,6.72-17.36,10l-2.21,1.21-1,.54-.39.24-.13.1a2.5,2.5,0,0,0,.42-.54c1,.3.07-4.84-1.46-4.55a2.26,2.26,0,0,0-.91-.23h0c.15,0,.51-.06.85-.12.7-.12,1.48-.29,2.25-.47,3.12-.74,6.32-1.63,9.5-2.52,6.38-1.78,12.78-3.62,19.22-5.37,3.23-.88,6.46-1.73,9.73-2.53s6.56-1.56,10-2.1c.88-.13,1.77-.25,2.73-.32.48,0,1-.06,1.54-.05a8.28,8.28,0,0,1,2,.26A4.55,4.55,0,0,1,331,309a4,4,0,0,1,1.09,1.55,3.92,3.92,0,0,1,.22,1.85,4.63,4.63,0,0,1-.68,1.89,7.6,7.6,0,0,1-.68.92,16.39,16.39,0,0,1-2.31,2.11,85.94,85.94,0,0,1-8.72,5.66c-2.91,1.69-5.88,3.33-8.86,4.89s-5.94,3.06-8.92,4.56c-23.81,11.92-47.82,23.31-71.15,35.8-5.81,3.14-11.6,6.35-17.07,9.83-1.37.87-2.71,1.76-4,2.69-.63.46-1.26.93-1.77,1.38a7.1,7.1,0,0,0-1.16,1.2c-.09.08,0,.13.07-.56a2,2,0,0,0-.36-1.1,1.35,1.35,0,0,0-.42-.42c-.12-.06.06,0,.29.08a7,7,0,0,0,.87.15,34.87,34.87,0,0,0,4.54.13c3.24-.07,6.53-.33,10.07-.31a25.63,25.63,0,0,1,2.81.16,10.08,10.08,0,0,1,1.71.34,6.47,6.47,0,0,1,1.14.45,4.26,4.26,0,0,1,1.57,1.41,3.71,3.71,0,0,1,.55,1.41,3.83,3.83,0,0,1,0,1.36,4.55,4.55,0,0,1-.65,1.6,7.84,7.84,0,0,1-1.27,1.52,21.71,21.71,0,0,1-2.29,1.84c-1.49,1-3,1.93-4.44,2.8-.73.42-1.49.85-2.28,1.27s-1.54.79-2.31,1.17c-3.09,1.49-6.18,2.81-9.28,4.1-6.19,2.57-12.39,5-18.53,7.43-3.07,1.24-6.13,2.49-9.13,3.79a80.7,80.7,0,0,0-8.59,4.21,14.07,14.07,0,0,0-1.67,1.16,3.11,3.11,0,0,0-.4.38,2.37,2.37,0,0,0,.11-.24,2,2,0,0,0,0-1.17,1.9,1.9,0,0,0-.52-.91c-.13-.11-.18-.12-.14-.11a3,3,0,0,0,.56.19,14.11,14.11,0,0,0,2,.34c.69.07,1.65.14,2.5.25s1.77.22,2.71.41a14.36,14.36,0,0,1,1.48.36,8,8,0,0,1,1.87.81,4.07,4.07,0,0,1,1.46,1.49,3.56,3.56,0,0,1,.47,1.69,3.53,3.53,0,0,1-.32,1.57,4.38,4.38,0,0,1-1,1.45,7.17,7.17,0,0,1-.84.68,16.56,16.56,0,0,1-2.7,1.45c-.84.37-1.67.69-2.49,1-1.63.61-3.25,1.13-4.87,1.64-3.23,1-6.45,1.9-9.66,2.79s-6.41,1.76-9.56,2.68c-1.58.46-3.14.93-4.64,1.43-.75.25-1.49.52-2.12.79l-2.28,1a75.42,75.42,0,0,1-9.78,3.48,36.17,36.17,0,0,1-5.33,1,18.27,18.27,0,0,1-6-.21,11.75,11.75,0,0,1-3.16-1.23,9.63,9.63,0,0,1-2.69-2.32,12.4,12.4,0,0,1-2.47-6,31.4,31.4,0,0,1,.71-11,80.31,80.31,0,0,1,2.91-9.94c.57-1.61,1.19-3.19,1.82-4.77s1.4-3.22,2.17-4.74c3.1-6.13,6.56-11.74,9.5-17.56,1.47-2.9,2.84-5.83,4-8.82l3.68-9.26c2.49-6.18,5-12.35,7.66-18.49,1.33-3.07,2.68-6.13,4.11-9.18s2.88-6.08,4.64-9.12c.44-.77.91-1.53,1.44-2.31.28-.39.56-.78.9-1.2a8.8,8.8,0,0,1,1.3-1.32,5.12,5.12,0,0,1,1.28-.78,4.22,4.22,0,0,1,1.24-.28,3.65,3.65,0,0,1,1.68.28,3.84,3.84,0,0,1,1.25.88,4.23,4.23,0,0,1,.61.83,5.83,5.83,0,0,1,.51,1.22,14.09,14.09,0,0,1,.44,3.21,97.48,97.48,0,0,1-.53,10.33c-.3,3.32-.64,6.63-.81,9.81,0,.79-.06,1.57,0,2.29,0,.36,0,.71,0,1s.09.56.05.43a1.24,1.24,0,0,0-.15-.31,2.62,2.62,0,0,0-.85-.79,2.73,2.73,0,0,0-1.76-.31,2.32,2.32,0,0,0-.78.29.79.79,0,1,1-.16.11l.19-.24c.14-.18.38-.55.59-.88l.65-1c.89-1.31,1.69-2.74,2.53-4.12s1.62-2.82,2.38-4.27q2.34-4.33,4.54-8.76c2.95-5.9,5.76-11.91,8.59-17.92s5.65-12,8.64-18.05,6.21-11.89,9.66-17.72c.87-1.46,1.77-2.91,2.72-4.36a36.67,36.67,0,0,1,3.34-4.42,9.85,9.85,0,0,1,1.34-1.24,6.05,6.05,0,0,1,1.21-.73,4.3,4.3,0,0,1,2.88-.26,4.08,4.08,0,0,1,1.74,1,4.31,4.31,0,0,1,.84,1.11,5.67,5.67,0,0,1,.53,1.5,9.62,9.62,0,0,1,.19,1.9,36.45,36.45,0,0,1-.49,5.53c-1.08,6.82-2.62,13.26-3.93,19.74-.65,3.21-1.3,6.45-1.68,9.51-.09.76-.16,1.51-.18,2.16a6.74,6.74,0,0,0,0,.82c0,.09,0,.18,0,.16a2,2,0,0,0-.17-.44,3,3,0,0,0-.58-.73,3.11,3.11,0,0,0-1.41-.73,3.18,3.18,0,0,0-1.26,0,2.3,2.3,0,0,0-.56.19c-.33.17-.13.07,0-.08.31-.29.83-1,1.3-1.54a68.27,68.27,0,0,0,5.22-7.86c1.62-2.78,3.15-5.65,4.63-8.57,5.94-11.7,11.24-23.89,17.13-36a164.08,164.08,0,0,1,9.9-18c1-1.47,2-2.93,3.2-4.38a32.58,32.58,0,0,1,4-4.23,12.18,12.18,0,0,1,1.59-1.17c.18-.1.34-.2.56-.31s.43-.21.69-.32a6.29,6.29,0,0,1,2.18-.47,5.7,5.7,0,0,1,3.45,1,5.93,5.93,0,0,1,1.9,2.26,8.14,8.14,0,0,1,.76,2.81,18.83,18.83,0,0,1,0,3.38c-.08,1-.2,1.9-.34,2.8-.54,3.56-1.29,6.85-2,10.14l-2.24,9.7c-.7,3.18-1.38,6.39-1.76,9.32-.09.73-.16,1.43-.18,2,0,.3,0,.57,0,.77s0,.33,0,.14a2.46,2.46,0,0,0-.25-.65,4.08,4.08,0,0,0-1.46-1.54,4.43,4.43,0,0,0-2.5-.67,3.77,3.77,0,0,0-1.08.21c-.32.14-.22.11-.11,0s.31-.27.52-.45h0l-1.36,1.91c14.13-33.37,34.09-64,57.55-91.29s50.44-51.47,79.35-72.73a578.26,578.26,0,0,1,92.22-55.17,482.7,482.7,0,0,1,49.76-20.6c8.51-2.92,17.14-5.59,26-7.73,4.42-1.07,8.89-2,13.48-2.68,2.3-.34,4.63-.6,7-.74,1.2-.07,2.41-.11,3.67-.08.62,0,1.26,0,1.91.08l1,.09Z" transform="translate(-11.47 -19.59)"/><path class="cls-1" d="M476.32,106.46c-24.49,9-102.57,71.15-217.4,174.61S58.22,472.18,17,520.29C71.09,492.67,222.52,340,337.35,236.58S463.53,124,476.32,106.46Z" transform="translate(-11.47 -19.59)"/><path class="cls-1" d="M473.24,110.87a2.48,2.48,0,0,0,1.2,1.25,1.77,1.77,0,0,0,1.35.1l.11,0c.05,0,0,0,0,0l-.27.1-.52.18-1.06.38c-.71.23-1.41.56-2.12.85s-1.42.58-2.13.92c-1.42.66-2.84,1.3-4.24,2s-2.81,1.45-4.2,2.22c-5.56,3.09-11,6.44-16.42,10-10.73,7.08-21.14,14.7-31.29,22.64-20.28,15.93-40.1,32.46-59.75,49.18-39.31,33.46-77.73,68-115.78,102.85q-28.44,26.28-56.43,53t-55.31,54.16L112.73,424.4l-13.5,13.86L85.82,452.2l-13.3,14L59.35,480.38c-4.33,4.77-8.71,9.49-13,14.28Q33.44,509,21.08,523.79h0l-6.54-8.29c2.7-1.45,5.41-2.83,8.07-4.51s5.31-3.33,8-5.05,5.21-3.6,7.83-5.4l7.71-5.66c10.2-7.69,20.16-15.79,30-24s19.64-16.6,29.32-25.08,19.33-17,28.88-25.67c38.28-34.51,75.88-69.83,113.67-104.94q28.32-26.37,56.8-52.58c19-17.44,38.27-34.65,57.45-51.88L419.8,159c9.57-8.63,19.05-17.37,28.13-26.48,2.29-2.26,4.49-4.6,6.72-6.9s4.33-4.71,6.39-7.11c1-1.19,2-2.43,3-3.66s1.94-2.46,2.84-3.72,1.77-2.57,2.64-3.85c.43-.64.83-1.32,1.24-2l.61-1,.29-.5.15-.26.08-.12C472.49,106.76,470.68,95.76,473.24,110.87Zm6.16-8.82c2.5,15.19.63,4.27,1.16,7.69l-.11.12-.21.23-.42.47-.84.93c-.57.62-1.11,1.25-1.7,1.85-1.16,1.23-2.28,2.48-3.48,3.65L472,118.78c-.59.59-1.19,1.16-1.79,1.74l-1.79,1.72-1.82,1.67c-4.8,4.5-9.73,8.72-14.57,13q-14.62,12.78-28.93,25.77l-57.46,51.83L337,240.45q-14.32,13-28.49,26.13-28.37,26.28-56.43,52.9L195.9,372.74c-18.74,17.73-37.46,35.49-56.39,53s-37.94,35.05-57.51,52c-9.79,8.47-19.69,16.83-29.94,24.87l-7.74,6c-2.66,1.93-5.25,3.92-8,5.8s-5.39,3.78-8.24,5.53-5.74,3.47-8.69,5.14a5.34,5.34,0,0,1-6.62-8.2l.08-.09h0c34.65-38.74,71.25-75.26,108.37-111.27,18.56-18,37.35-35.75,56.2-53.44s37.93-35.11,57.09-52.45Q292,247.6,351,197.29c19.71-16.71,39.63-33.19,60-49.18,10.15-8,20.3-16.05,30.58-24,5.15-4,10.31-7.93,15.66-11.76,2.64-2,5.39-3.79,8.17-5.67,1.42-.92,2.84-1.83,4.34-2.71l1.13-.66.57-.33.28-.16a1.41,1.41,0,0,1,.26-.13l.38-.17a11,11,0,0,1,3.59-.81A12.6,12.6,0,0,1,479.4,102.05Z" transform="translate(-11.47 -19.59)"/><path class="cls-1" d="M30.68,505.76c9-3.78,17.94-7.23,27-10.6s18.13-6.56,27.27-9.6c18.3-6.07,36.81-11.53,55.62-16,9.4-2.23,18.88-4.18,28.44-5.76a269,269,0,0,1,29-3.31,146.23,146.23,0,0,1,29.39,1,82.72,82.72,0,0,1,14.58,3.43c1.18.43,2.37.87,3.55,1.34l1.74.77.87.39c.29.13.66.35,1,.52a17.81,17.81,0,0,1,6.22,6,35.65,35.65,0,0,1,3.49,7c.91,2.36,1.64,4.72,2.33,7.05,1.38,4.65,2.56,9.25,4.2,13.48a30.43,30.43,0,0,0,2.92,5.85,12.29,12.29,0,0,0,4.16,4A56.35,56.35,0,0,0,285.21,516,122,122,0,0,0,313.15,519a253.17,253.17,0,0,0,28.42-1.7,487.56,487.56,0,0,0,56.34-10.09c18.6-4.39,37.08-9.48,55.25-15.39h0a1,1,0,0,1,.61,1.83c-18.15,6.29-36.55,11.74-55.16,16.51a492,492,0,0,1-56.56,11.26,257.58,257.58,0,0,1-28.89,2.28,127.68,127.68,0,0,1-29.16-2.5,62.25,62.25,0,0,1-14.2-4.9,17.82,17.82,0,0,1-6.25-5.69,36.92,36.92,0,0,1-3.64-6.9c-1.91-4.68-3.18-9.36-4.62-13.87s-2.94-8.9-5.28-12.31a11.36,11.36,0,0,0-4.06-3.84c-.21-.1-.35-.2-.61-.31l-.78-.33-1.55-.65c-1.06-.4-2.13-.77-3.2-1.14a76.09,76.09,0,0,0-13.42-2.88,139.64,139.64,0,0,0-28-.39,262.05,262.05,0,0,0-28.06,3.76c-9.32,1.72-18.58,3.82-27.77,6.19C124.2,482.61,106,488.35,88.08,494.7q-13.47,4.76-26.77,10c-8.84,3.48-17.71,7.11-26.3,10.92l-.07,0a5.38,5.38,0,0,1-4.35-9.84Z" transform="translate(-11.47 -19.59)"/></svg>