<svg id="Layer_1" data-name="Layer 1" xmlns="http://www.w3.org/2000/svg" viewBox="0 0 100 100"><defs><style>.cls-1{fill:#fff;}</style></defs><title>Artboard 1</title><path class="cls-1" d="M92.48,7c-2-.56-14.83,8.35-25.9,9.09-10.91,1.71-21.36,13.3-28.21,21.4-6.44,6.47-9.2,13-14,20-3.8,6.27-7,10-9.17,17.06h0a6.87,6.87,0,0,0-.45,1.9A52.07,52.07,0,0,0,9.87,90.13a9.22,9.22,0,0,0-1.93,2h0c1,3.27,4.06,3.44,6.71.53.17.61,3.46-2.73,5.2-3.27.68,0,3.29,2.36,4.15,3.22,3.13,3.56,5.34,8.29,13.26,3.39,4-2.84,7.19-6.35,10.51-9.86.24,3.24.65,6.4,2.7,8.41,4.52,3,9.62-1.92,15.32-5.37,1.78-1,9.28-6.88,10.12-4.92.17.26.5.94.68,1.27,2.73,2.92,6.5,1.72,6.35-2.37a4.86,4.86,0,0,0-1.15-1.4c-5.06-3.27-12.58.54-19.76,4.65-1.72,1-3.44,2-5.12,3.15-.7.47-1.16.79-1.47,1-1-1.56-.94-4.31-1-6.19-.19-4.56-3.54-8.86-9.56-2.51-3.67,4-7.11,8.24-11.59,11.31-1.24.75-.47.07-3.47-3.39-2.92-3-6.5-6-12.54-4-.8.35-1.95.91-3.18,1.59a62.49,62.49,0,0,1,2.53-8c1.87.77,4.77.34,6.86-.6,7.29-3.29-4.39.6-5.75-2,.21-.47.41-.94.63-1.4,5.25-.72,16.86-2.19,17.08-2.14,6.11.19,5.32-4.19,9.25-7.64,3.53-2.47,16.37-16,20-18.21,3-1.4,24.6-13.7,26.25-18.41C93.14,21.55,89,13.86,92.48,7Z"/></svg>